<svg width="24" height="24" viewBox="0 0 24 24" fill="none" xmlns="http://www.w3.org/2000/svg">
<path d="M20.947 8.30593C20.9369 7.54856 20.7951 6.79871 20.528 6.08993C20.2964 5.49209 19.9425 4.94913 19.4892 4.49576C19.0358 4.0424 18.4929 3.68858 17.895 3.45693C17.1953 3.19429 16.4562 3.05227 15.709 3.03693C14.747 2.99393 14.442 2.98193 12 2.98193C9.55801 2.98193 9.24501 2.98193 8.29001 3.03693C7.54317 3.05239 6.80436 3.1944 6.10501 3.45693C5.50707 3.68842 4.96403 4.04218 4.51064 4.49557C4.05725 4.94895 3.7035 5.49199 3.47201 6.08993C3.20884 6.78907 3.06713 7.52804 3.05301 8.27493C3.01001 9.23793 2.99701 9.54293 2.99701 11.9849C2.99701 14.4269 2.99701 14.7389 3.05301 15.6949C3.06801 16.4429 3.20901 17.1809 3.47201 17.8819C3.70389 18.4797 4.05791 19.0225 4.51145 19.4757C4.96499 19.9289 5.50807 20.2825 6.10601 20.5139C6.80344 20.7871 7.54238 20.9393 8.29101 20.9639C9.25401 21.0069 9.55901 21.0199 12.001 21.0199C14.443 21.0199 14.756 21.0199 15.711 20.9639C16.4582 20.9492 17.1974 20.8075 17.897 20.5449C18.4947 20.313 19.0375 19.9591 19.4909 19.5058C19.9442 19.0524 20.2981 18.5096 20.53 17.9119C20.793 17.2119 20.934 16.4739 20.949 15.7249C20.992 14.7629 21.005 14.4579 21.005 12.0149C21.003 9.57293 21.003 9.26293 20.947 8.30593ZM11.994 16.6029C9.44001 16.6029 7.37101 14.5339 7.37101 11.9799C7.37101 9.42593 9.44001 7.35693 11.994 7.35693C13.2201 7.35693 14.396 7.844 15.263 8.71098C16.1299 9.57796 16.617 10.7538 16.617 11.9799C16.617 13.206 16.1299 14.3819 15.263 15.2489C14.396 16.1159 13.2201 16.6029 11.994 16.6029ZM16.801 8.26393C16.6594 8.26406 16.5192 8.23627 16.3883 8.18214C16.2575 8.12802 16.1386 8.04862 16.0385 7.94849C15.9383 7.84836 15.8589 7.72947 15.8048 7.59862C15.7507 7.46777 15.7229 7.32754 15.723 7.18593C15.723 7.04443 15.7509 6.90432 15.805 6.77359C15.8592 6.64286 15.9385 6.52408 16.0386 6.42403C16.1387 6.32397 16.2574 6.2446 16.3882 6.19045C16.5189 6.1363 16.659 6.10843 16.8005 6.10843C16.942 6.10843 17.0821 6.1363 17.2129 6.19045C17.3436 6.2446 17.4624 6.32397 17.5624 6.42403C17.6625 6.52408 17.7418 6.64286 17.796 6.77359C17.8501 6.90432 17.878 7.04443 17.878 7.18593C17.878 7.78193 17.396 8.26393 16.801 8.26393Z" fill="#2EA3F2"/>
<path d="M11.994 14.9831C13.6525 14.9831 14.997 13.6386 14.997 11.9801C14.997 10.3215 13.6525 8.97705 11.994 8.97705C10.3355 8.97705 8.99103 10.3215 8.99103 11.9801C8.99103 13.6386 10.3355 14.9831 11.994 14.9831Z" fill="#2EA3F2"/>
</svg>
