<svg width="24" height="25" viewBox="0 0 24 25" fill="none" xmlns="http://www.w3.org/2000/svg">
<path d="M23.643 4.94001C22.808 5.31001 21.911 5.56001 20.968 5.67301C21.941 5.0908 22.669 4.17447 23.016 3.09501C22.1019 3.638 21.1014 4.0202 20.058 4.22501C19.3564 3.47587 18.4271 2.97933 17.4143 2.81248C16.4016 2.64563 15.3621 2.8178 14.4572 3.30226C13.5524 3.78672 12.8328 4.55637 12.4102 5.49171C11.9875 6.42705 11.8855 7.47576 12.12 8.47501C10.2677 8.382 8.45564 7.90056 6.80144 7.06191C5.14723 6.22327 3.68785 5.04617 2.51801 3.60701C2.11801 4.29701 1.88801 5.09701 1.88801 5.94901C1.88757 6.716 2.07644 7.47125 2.43789 8.14774C2.79934 8.82423 3.32217 9.40104 3.96001 9.82701C3.22029 9.80347 2.49688 9.60359 1.85001 9.24401V9.30401C1.84994 10.3797 2.22204 11.4224 2.90319 12.255C3.58434 13.0876 4.53258 13.6589 5.58701 13.872C4.9008 14.0577 4.18135 14.0851 3.48301 13.952C3.78051 14.8776 4.36001 15.687 5.14038 16.2669C5.92075 16.8468 6.86293 17.1682 7.83501 17.186C6.18484 18.4814 4.1469 19.1841 2.04901 19.181C1.67739 19.1811 1.30609 19.1594 0.937012 19.116C3.06649 20.4852 5.54535 21.2118 8.07701 21.209C16.647 21.209 21.332 14.111 21.332 7.95501C21.332 7.75501 21.327 7.55301 21.318 7.35301C22.2293 6.69398 23.0159 5.8779 23.641 4.94301L23.643 4.94001Z" fill="#2EA3F2"/>
</svg>
