<svg width="24" height="24" viewBox="0 0 24 24" fill="none" xmlns="http://www.w3.org/2000/svg">
<g clip-path="url(#clip0_6_23)">
<path d="M23.5 6.5061C23.3641 6.02133 23.0994 5.58245 22.734 5.2361C22.3583 4.8791 21.8978 4.62374 21.396 4.4941C19.518 3.9991 11.994 3.9991 11.994 3.9991C8.85734 3.96341 5.72144 4.12037 2.60401 4.4691C2.1022 4.60831 1.64257 4.86939 1.26601 5.2291C0.896007 5.5851 0.628007 6.0241 0.488007 6.5051C0.1517 8.31684 -0.0117011 10.1564 6.83166e-06 11.9991C-0.0119932 13.8401 0.151007 15.6791 0.488007 17.4931C0.625007 17.9721 0.892007 18.4091 1.26301 18.7621C1.63401 19.1151 2.09601 19.3701 2.60401 19.5051C4.50701 19.9991 11.994 19.9991 11.994 19.9991C15.1347 20.0348 18.2746 19.8779 21.396 19.5291C21.8978 19.3995 22.3583 19.1441 22.734 18.7871C23.104 18.4341 23.367 17.9951 23.499 17.5171C23.8441 15.7061 24.0119 13.8657 24 12.0221C24.026 10.1707 23.8584 8.32166 23.5 6.5051V6.5061ZM9.60201 15.4231V8.5761L15.862 12.0001L9.60201 15.4231Z" fill="#2EA3F2"/>
</g>
<defs>
<clipPath id="clip0_6_23">
<rect width="24" height="24" fill="white" transform="translate(0 -0.000976562)"/>
</clipPath>
</defs>
</svg>
