<svg width="266" height="27" viewBox="0 0 266 27" fill="none" xmlns="http://www.w3.org/2000/svg">
<path opacity="0.5" d="M7.02 -2.14577e-06H16.632V2.88H14.976L21.312 24.12H23.112V27H15.48V24.12H18L16.344 18.576H7.308L5.652 24.12H8.172V27H0.54V24.12H2.34L8.676 2.88H7.02V-2.14577e-06ZM11.808 3.42L8.172 15.696H15.48L11.808 3.42ZM40.9402 18.504H43.8202V23.04L40.0762 27H31.0042L27.2602 23.04V3.96L31.0042 -2.14577e-06H40.0762L43.8202 3.96V8.496H40.9402V5.436L38.6722 3.096H32.4442L30.5722 5.004V21.996L32.4082 23.904H38.6362L40.9402 21.564V18.504ZM63.2461 18.504H66.1261V23.04L62.3821 27H53.3101L49.5661 23.04V3.96L53.3101 -2.14577e-06H62.3821L66.1261 3.96V8.496H63.2461V5.436L60.9781 3.096H54.7501L52.8781 5.004V21.996L54.7141 23.904H60.9421L63.2461 21.564V18.504ZM75.616 27L71.872 23.04V3.96L75.616 -2.14577e-06H85.768L89.512 3.96V23.04L85.768 27H75.616ZM77.02 23.904H84.328L86.2 21.996V5.004L84.364 3.096H77.056L75.184 5.004V21.996L77.02 23.904ZM109.254 -2.14577e-06H117.246V2.88H115.086V23.04L111.342 27H101.55L97.8061 23.04V2.88H95.6461V-2.14577e-06H103.638V2.88H101.118V21.996L102.954 23.904H109.902L111.774 21.996V2.88H109.254V-2.14577e-06ZM129.207 24.12H131.727V27H123.375V24.12H125.895V2.88H123.375V-2.14577e-06H130.863L141.375 22.932V2.88H138.855V-2.14577e-06H147.207V2.88H144.687V27H139.719L129.207 4.104V24.12ZM166.125 27H155.613V24.12H159.213V2.88H153.885V7.056H151.149V-2.14577e-06H170.589V7.056H167.853V2.88H162.525V24.12H166.125V27ZM177.962 -2.14577e-06H187.574V2.88H185.918L192.254 24.12H194.054V27H186.422V24.12H188.942L187.286 18.576H178.25L176.594 24.12H179.114V27H171.482V24.12H173.282L179.618 2.88H177.962V-2.14577e-06ZM182.75 3.42L179.114 15.696H186.422L182.75 3.42ZM204.034 24.12H206.554V27H198.202V24.12H200.722V2.88H198.202V-2.14577e-06H205.69L216.202 22.932V2.88H213.682V-2.14577e-06H222.034V2.88H219.514V27H214.546L204.034 4.104V24.12ZM240.953 27H230.441V24.12H234.041V2.88H228.713V7.056H225.977V-2.14577e-06H245.417V7.056H242.681V2.88H237.353V24.12H240.953V27ZM265.58 8.496H262.592V5.328L260.432 3.096H254.924L253.052 5.004V9.972L254.816 11.772H262.304L265.94 15.588V23.04L262.196 27H253.124L249.38 23.04V18.504H252.368V21.672L254.564 23.904H260.792L262.628 21.996V16.632L260.9 14.868H253.412L249.74 11.016V3.96L253.484 -2.14577e-06H261.836L265.58 3.96V8.496Z" fill="#4D4D4D"/>
</svg>
