<svg width="162" height="25" viewBox="0 0 162 25" fill="none" xmlns="http://www.w3.org/2000/svg">
<path opacity="0.5" d="M12.76 21.336V24H4.804C3.22 24 2.056 23.688 1.312 23.064C0.568 22.416 0.196 21.36 0.196 19.896V5.244C0.196 3.756 0.568 2.7 1.312 2.076C2.056 1.452 3.22 1.14 4.804 1.14H12.76V3.804H3.58C3.34 3.804 3.22 3.912 3.22 4.128V21.012C3.22 21.228 3.34 21.336 3.58 21.336H12.76ZM29.4519 11.688V1.14H32.3679V24H29.4519V13.164L29.9919 13.668H19.1919L19.7319 13.164V24H16.8159V1.14H19.7319V11.688L19.1919 11.112H29.9919L29.4519 11.688ZM54.2981 24H51.3461L49.7981 17.664L50.2301 18.024H40.1141L40.5821 17.664L38.8901 24H36.1181L41.5901 4.488C41.8301 3.552 42.0821 2.844 42.3461 2.364C42.6341 1.884 43.0181 1.548 43.4981 1.356C43.9781 1.164 44.6741 1.068 45.5861 1.068L48.6821 1.14L54.2981 24ZM44.2541 4.02L41.0501 15.828L40.7621 15.468H49.6901L49.4021 15.828L46.4861 3.66H44.6501C44.5301 3.66 44.4461 3.696 44.3981 3.768C44.3501 3.816 44.3021 3.9 44.2541 4.02ZM61.0416 24H58.0536V1.14L67.6656 0.995998C69.2976 0.971998 70.5216 1.332 71.3376 2.076C72.1536 2.82 72.5616 3.96 72.5616 5.496V10.104C72.5616 11.472 72.2136 12.54 71.5176 13.308C70.8216 14.052 69.7656 14.484 68.3496 14.604L68.3856 13.992C68.9856 14.112 69.4536 14.376 69.7896 14.784C70.1256 15.192 70.4256 15.792 70.6896 16.584L73.2816 24H70.2936L67.2696 15.108C67.1976 14.964 67.1256 14.856 67.0536 14.784C67.0056 14.712 66.8736 14.676 66.6576 14.676H60.3216L61.0056 14.1L61.0416 24ZM61.0056 2.976V12.732L60.5016 12.192H69.0696C69.3816 12.192 69.5376 12.036 69.5376 11.724V4.02C69.5376 3.708 69.3816 3.552 69.0696 3.552H60.5016L61.0056 2.976ZM83.4587 24H80.5067V3.228L80.9747 3.696H74.7827V1.14H89.1827V3.696H82.9547L83.4587 3.228V24ZM104.968 24H92.1881V1.14H104.788V3.696H94.6361L95.1041 3.228V11.58L94.6361 11.112H104.176V13.632H94.6361L95.1041 13.164V21.912L94.6361 21.444H104.968V24ZM112.526 24H109.538V1.14L119.15 0.995998C120.782 0.971998 122.006 1.332 122.822 2.076C123.638 2.82 124.046 3.96 124.046 5.496V10.104C124.046 11.472 123.698 12.54 123.002 13.308C122.306 14.052 121.25 14.484 119.834 14.604L119.87 13.992C120.47 14.112 120.938 14.376 121.274 14.784C121.61 15.192 121.91 15.792 122.174 16.584L124.766 24H121.778L118.754 15.108C118.682 14.964 118.61 14.856 118.538 14.784C118.49 14.712 118.358 14.676 118.142 14.676H111.806L112.49 14.1L112.526 24ZM112.49 2.976V12.732L111.986 12.192H120.554C120.866 12.192 121.022 12.036 121.022 11.724V4.02C121.022 3.708 120.866 3.552 120.554 3.552H111.986L112.49 2.976ZM142.162 24H129.382V1.14H141.982V3.696H131.83L132.298 3.228V11.58L131.83 11.112H141.37V13.632H131.83L132.298 13.164V21.912L131.83 21.444H142.162V24ZM158 3.552H149.612V21.588H158C158.288 21.588 158.432 21.432 158.432 21.12V4.02C158.432 3.708 158.288 3.552 158 3.552ZM146.696 24.036V1.14L156.56 0.959998C158.24 0.935999 159.476 1.284 160.268 2.004C161.084 2.724 161.492 3.888 161.492 5.496V19.644C161.492 21.252 161.06 22.416 160.196 23.136C159.356 23.856 158.108 24.204 156.452 24.18L146.696 24.036Z" fill="#4D4D4D"/>
</svg>
