<svg width="32" height="32" viewBox="0 0 32 32" fill="none" xmlns="http://www.w3.org/2000/svg">
<circle cx="16" cy="16" r="15.5" stroke="#414141"/>
<path d="M23.3889 13.147L24.4362 14.2209L25.5101 13.1736L24.4628 12.0997L23.3889 13.147ZM22.673 13.8452L23.7203 14.9191L23.7203 14.9191L22.673 13.8452ZM21.9926 11.7152L23.0665 10.6679L22.0192 9.59402L20.9453 10.6413L21.9926 11.7152ZM21.2767 12.4134L20.2294 11.3395L20.2294 11.3395L21.2767 12.4134ZM13.8774 19.6294L12.8723 20.7429L13.9171 21.6859L14.9246 20.7033L13.8774 19.6294ZM9.7253 15.8817L10.7303 14.7682L10.7303 14.7682L9.7253 15.8817ZM8.98297 15.2117L9.98802 14.0982L8.87452 13.0932L7.86947 14.2067L8.98297 15.2117ZM7.6429 16.6964L6.5294 15.6913L5.52435 16.8048L6.63785 17.8099L7.6429 16.6964ZM8.38523 17.3664L7.38018 18.4799L7.38018 18.4799L8.38523 17.3664ZM13.09 21.6129L14.095 20.4994L14.095 20.4994L13.09 21.6129ZM13.8323 22.283L12.8272 23.3965L13.9407 24.4015L14.9458 23.288L13.8323 22.283ZM13.8867 22.2227L14.9605 21.1754L13.8444 20.0309L12.7732 21.2177L13.8867 22.2227ZM13.9823 22.3207L12.9084 23.368L13.9557 24.4419L15.0295 23.3946L13.9823 22.3207ZM14.6982 21.6226L15.7455 22.6964L15.7455 22.6964L14.6982 21.6226ZM22.3417 12.0731L21.6258 12.7713L23.7203 14.9191L24.4362 14.2209L22.3417 12.0731ZM20.9187 12.7625L22.3151 14.1943L24.4628 12.0997L23.0665 10.6679L20.9187 12.7625ZM22.3239 13.4872L23.0399 12.7891L20.9453 10.6413L20.2294 11.3395L22.3239 13.4872ZM14.9246 20.7033L22.3239 13.4872L20.2294 11.3395L12.8301 18.5555L14.9246 20.7033ZM8.72025 16.9952L12.8723 20.7429L14.8824 18.5159L10.7303 14.7682L8.72025 16.9952ZM7.97792 16.3252L8.72025 16.9952L10.7303 14.7682L9.98802 14.0982L7.97792 16.3252ZM8.7564 17.7014L10.0965 16.2168L7.86947 14.2067L6.5294 15.6913L8.7564 17.7014ZM9.39028 16.2529L8.64795 15.5829L6.63785 17.8099L7.38018 18.4799L9.39028 16.2529ZM14.095 20.4994L9.39028 16.2529L7.38018 18.4799L12.0849 22.7264L14.095 20.4994ZM14.8373 21.1695L14.095 20.4994L12.0849 22.7264L12.8272 23.3965L14.8373 21.1695ZM12.7732 21.2177L12.7188 21.2779L14.9458 23.288L15.0002 23.2278L12.7732 21.2177ZM15.0561 21.2735L14.9605 21.1754L12.8128 23.27L12.9084 23.368L15.0561 21.2735ZM13.6509 20.5487L12.935 21.2469L15.0295 23.3946L15.7455 22.6964L13.6509 20.5487ZM21.6258 12.7713L13.6509 20.5487L15.7455 22.6964L23.7203 14.9191L21.6258 12.7713Z" fill="#2EA3F2"/>
</svg>
