<svg width="339" height="27" viewBox="0 0 339 27" fill="none" xmlns="http://www.w3.org/2000/svg">
<path opacity="0.5" d="M27.98 26.048H19.412V24.896C20.78 24.896 21.692 24.704 22.148 24.32C22.532 23.96 22.724 23.432 22.724 22.736V3.26C21.212 7.148 19.724 10.988 18.26 14.78C16.82 18.548 15.368 22.376 13.904 26.264H12.788C11.348 22.448 9.944 18.668 8.576 14.924C7.208 11.156 5.804 7.352 4.364 3.512V22.736C4.364 23.528 4.568 24.092 4.976 24.428C5.456 24.74 6.284 24.896 7.46 24.896V26.048H0.08V24.896C1.256 24.896 2.024 24.764 2.384 24.5C2.768 24.212 2.96 23.768 2.96 23.168V4.088C2.96 3.392 2.768 2.9 2.384 2.612C2 2.3 1.244 2.144 0.116 2.144V0.955998H6.092C7.388 4.508 8.684 8.012 9.98 11.468C11.3 14.924 12.608 18.44 13.904 22.016C15.2 18.44 16.496 14.924 17.792 11.468C19.112 8.012 20.42 4.508 21.716 0.955998H27.98V2.144C26.588 2.144 25.736 2.3 25.424 2.612C25.16 2.948 25.028 3.404 25.028 3.98V22.736C25.028 23.48 25.184 24.008 25.496 24.32C25.952 24.704 26.78 24.896 27.98 24.896V26.048ZM54.5818 26.048H45.6177V24.824C46.6978 24.824 47.4778 24.752 47.9577 24.608C48.4618 24.464 48.7738 24.248 48.8938 23.96C48.9178 23.936 48.9297 23.864 48.9297 23.744C48.9297 23.624 48.9058 23.504 48.8578 23.384C48.8098 23.24 48.7617 23.096 48.7138 22.952C48.6178 22.76 48.5218 22.568 48.4258 22.376C48.3537 22.16 48.2697 21.944 48.1738 21.728C47.9098 20.936 47.6337 20.156 47.3457 19.388C47.0578 18.62 46.7818 17.852 46.5177 17.084H36.6537C36.3657 17.948 36.0657 18.812 35.7537 19.676C35.4657 20.54 35.1777 21.416 34.8897 22.304C34.7697 22.544 34.6857 22.772 34.6377 22.988C34.6137 23.18 34.6017 23.36 34.6017 23.528C34.6017 23.816 34.6617 24.02 34.7817 24.14C34.9977 24.596 35.9817 24.824 37.7337 24.824V26.048H29.9937V24.824C30.6177 24.824 31.1217 24.74 31.5057 24.572C31.9137 24.428 32.2857 24.152 32.6217 23.744C32.7897 23.528 32.9457 23.252 33.0897 22.916C33.2337 22.58 33.3897 22.208 33.5577 21.8C33.7017 21.392 33.9537 20.66 34.3137 19.604C34.6977 18.548 35.1297 17.324 35.6097 15.932C36.0897 14.54 36.6057 13.076 37.1577 11.54C37.7097 10.004 38.2257 8.54 38.7057 7.148C39.1857 5.756 39.6057 4.532 39.9657 3.476C40.3497 2.42 40.6137 1.688 40.7578 1.28C41.0697 1.112 41.3817 0.955999 41.6937 0.811998C42.0058 0.643999 42.3177 0.475999 42.6297 0.307998C44.0697 4.052 45.4857 7.76 46.8778 11.432C48.2697 15.08 49.6857 18.776 51.1257 22.52C51.4377 23.336 51.8098 23.924 52.2418 24.284C52.7458 24.644 53.5258 24.824 54.5818 24.824V26.048ZM46.0498 15.644C45.2818 13.604 44.5018 11.564 43.7097 9.524C42.9417 7.484 42.1737 5.444 41.4058 3.404C40.6858 5.444 39.9658 7.484 39.2458 9.524C38.5497 11.564 37.8417 13.604 37.1217 15.644H46.0498ZM75.0058 19.604C75.0058 21.812 74.2618 23.528 72.7738 24.752C71.3578 26.024 69.4378 26.66 67.0138 26.66C66.1978 26.66 65.3098 26.564 64.3498 26.372C63.3898 26.18 62.4898 25.904 61.6498 25.544C61.2418 25.664 60.8338 25.796 60.4258 25.94C60.0418 26.084 59.6818 26.252 59.3458 26.444C58.9138 25.292 58.4698 24.164 58.0138 23.06C57.5818 21.956 57.1498 20.828 56.7178 19.676C56.8858 19.58 57.0418 19.496 57.1858 19.424C57.3298 19.328 57.4858 19.244 57.6538 19.172C58.8298 21.068 59.9698 22.424 61.0738 23.24C61.4338 23.528 61.8538 23.792 62.3338 24.032C62.8378 24.272 63.3538 24.476 63.8818 24.644C64.4098 24.836 64.9378 24.98 65.4658 25.076C65.9938 25.172 66.4738 25.22 66.9058 25.22C67.8178 25.22 68.6338 25.1 69.3538 24.86C70.0738 24.62 70.6738 24.284 71.1538 23.852C72.1618 22.916 72.6658 21.68 72.6658 20.144C72.6658 19.568 72.5338 19.004 72.2698 18.452C72.0058 17.876 71.6578 17.408 71.2258 17.048C70.2658 16.28 68.3818 15.416 65.5738 14.456C63.3418 13.664 61.5778 12.74 60.2818 11.684C58.5538 10.364 57.6898 8.756 57.6898 6.86C57.6898 4.916 58.3858 3.356 59.7778 2.18C61.1218 1.004 62.8738 0.415999 65.0338 0.415999C66.0658 0.415999 67.0738 0.559999 68.0578 0.848C68.3218 0.943999 68.5738 1.04 68.8138 1.136C69.0778 1.232 69.3178 1.328 69.5338 1.424L71.6938 0.704C72.1258 1.808 72.5578 2.9 72.9898 3.98C73.4218 5.06 73.8538 6.152 74.2858 7.256C74.0218 7.376 73.7578 7.508 73.4938 7.652C72.4858 5.924 71.3338 4.556 70.0378 3.548C68.4778 2.396 66.7978 1.82 64.9978 1.82C64.3738 1.82 63.7978 1.916 63.2698 2.108C62.7418 2.276 62.2618 2.504 61.8298 2.792C61.2298 3.2 60.7618 3.716 60.4258 4.34C60.0898 4.964 59.9218 5.696 59.9218 6.536C59.9218 7.904 60.6298 9.044 62.0458 9.956C62.7658 10.388 63.4618 10.76 64.1338 11.072C64.8058 11.36 65.6698 11.672 66.7258 12.008C68.1898 12.488 69.4258 12.98 70.4338 13.484C71.4418 13.988 72.2458 14.48 72.8458 14.96C74.2858 16.112 75.0058 17.66 75.0058 19.604ZM99.7775 0.955998C100.138 1.988 100.498 3.008 100.858 4.016C101.218 5.024 101.566 6.068 101.902 7.148C101.71 7.196 101.53 7.256 101.362 7.328C101.218 7.4 101.05 7.46 100.858 7.508C100.402 6.5 99.9575 5.684 99.5255 5.06C99.1175 4.412 98.7095 3.896 98.3015 3.512C97.7735 3.032 97.1495 2.708 96.4295 2.54C95.7095 2.372 95.0015 2.288 94.3055 2.288C92.9135 2.288 92.0015 2.396 91.5695 2.612C91.0895 2.828 90.8495 3.26 90.8495 3.908V23.024C90.8495 23.72 91.1135 24.212 91.6415 24.5C92.1215 24.764 93.1655 24.896 94.7735 24.896V26.048H84.6215V24.896C86.0615 24.896 87.0335 24.776 87.5375 24.536C88.2095 24.224 88.5455 23.72 88.5455 23.024V3.62C88.5455 3.116 88.3535 2.768 87.9695 2.576C87.6095 2.384 86.8775 2.288 85.7735 2.288C84.9335 2.288 84.0695 2.36 83.1815 2.504C82.3175 2.648 81.5735 2.984 80.9495 3.512C80.6855 3.728 80.4335 3.992 80.1935 4.304C79.9535 4.592 79.6775 4.976 79.3655 5.456C79.1735 5.768 78.9935 6.08 78.8255 6.392C78.6575 6.68 78.4775 6.992 78.2855 7.328C78.1415 7.256 77.9975 7.196 77.8535 7.148C77.7335 7.076 77.6015 7.004 77.4575 6.932C77.8175 5.924 78.1775 4.928 78.5375 3.944C78.8975 2.96 79.2575 1.964 79.6175 0.955998H99.7775ZM123.942 19.424C124.062 19.496 124.194 19.568 124.338 19.64C124.482 19.712 124.614 19.784 124.734 19.856C124.326 20.936 123.93 21.992 123.546 23.024C123.186 24.032 122.802 25.04 122.394 26.048H103.854V24.896C104.958 24.896 105.762 24.716 106.266 24.356C106.674 23.996 106.878 23.456 106.878 22.736V4.232C106.878 3.968 106.842 3.74 106.77 3.548C106.65 3.236 106.506 2.984 106.338 2.792C105.858 2.36 105.03 2.144 103.854 2.144V0.955998H121.566C121.974 1.988 122.37 3.008 122.754 4.016C123.162 5.024 123.57 6.044 123.978 7.076C123.858 7.148 123.738 7.232 123.618 7.328C123.498 7.4 123.378 7.46 123.258 7.508C122.754 6.5 122.19 5.672 121.566 5.024C120.942 4.376 120.366 3.872 119.838 3.512C118.566 2.648 117.09 2.216 115.41 2.216H111.594C110.826 2.216 110.202 2.384 109.722 2.72C109.362 3.008 109.182 3.512 109.182 4.232V12.332H114.582C115.734 12.332 116.526 12.08 116.958 11.576C117.51 10.952 117.786 9.776 117.786 8.048H118.866V18.02H117.786C117.786 16.172 117.51 14.972 116.958 14.42C116.526 13.916 115.734 13.664 114.582 13.664H109.182V22.772C109.182 23.516 109.362 24.044 109.722 24.356C109.962 24.548 110.238 24.668 110.55 24.716C110.886 24.788 111.258 24.824 111.666 24.824H115.806C117.702 24.824 119.178 24.476 120.234 23.78C120.858 23.372 121.47 22.796 122.07 22.052C122.694 21.308 123.318 20.432 123.942 19.424ZM149.063 26.048H144.383C143.279 24.008 142.175 22.004 141.071 20.036C139.967 18.044 138.863 16.028 137.759 13.988H133.043V22.628C133.043 23.492 133.259 24.08 133.691 24.392C134.243 24.728 135.119 24.896 136.319 24.896V26.048H127.427V24.896C128.747 24.896 129.647 24.728 130.127 24.392C130.559 24.032 130.775 23.456 130.775 22.664V4.232C130.775 3.56 130.547 3.056 130.091 2.72C129.635 2.36 128.747 2.18 127.427 2.18V0.955998H138.515C144.011 0.955998 146.759 3.104 146.759 7.4C146.759 8.936 146.387 10.22 145.643 11.252C144.539 12.716 142.727 13.592 140.207 13.88C141.119 15.488 142.019 17.084 142.907 18.668C143.795 20.252 144.695 21.848 145.607 23.456C145.919 23.984 146.327 24.356 146.831 24.572C147.359 24.788 148.103 24.896 149.063 24.896V26.048ZM144.311 7.328C144.311 5.768 143.795 4.544 142.763 3.656C141.707 2.744 140.303 2.288 138.551 2.288H135.383C134.495 2.288 133.895 2.432 133.583 2.72C133.223 3.056 133.043 3.548 133.043 4.196V12.584H138.983C140.543 12.584 141.815 12.116 142.799 11.18C143.807 10.172 144.311 8.888 144.311 7.328ZM183.149 19.028C183.149 21.284 182.321 23.036 180.665 24.284C179.129 25.46 177.053 26.048 174.437 26.048H162.017V24.824C163.313 24.824 164.165 24.692 164.573 24.428C165.005 24.044 165.221 23.504 165.221 22.808V4.34C165.221 4.028 165.173 3.788 165.077 3.62C164.981 3.308 164.837 3.044 164.645 2.828C164.141 2.396 163.265 2.18 162.017 2.18V0.955998H173.825C176.561 0.955998 178.613 1.46 179.981 2.468C181.373 3.5 182.069 5 182.069 6.968C182.069 8.192 181.613 9.332 180.701 10.388C180.293 10.844 179.825 11.252 179.297 11.612C178.793 11.948 178.229 12.236 177.605 12.476C179.093 12.908 180.281 13.532 181.169 14.348C182.489 15.524 183.149 17.084 183.149 19.028ZM179.585 6.932C179.585 6.212 179.441 5.552 179.153 4.952C178.889 4.352 178.517 3.848 178.037 3.44C177.557 3.032 176.969 2.732 176.273 2.54C175.577 2.348 174.821 2.252 174.005 2.252H170.117C169.493 2.252 168.989 2.324 168.605 2.468C167.885 2.804 167.525 3.416 167.525 4.304V12.008H174.041C174.497 12.008 174.941 11.972 175.373 11.9C176.261 11.732 177.077 11.324 177.821 10.676C178.997 9.716 179.585 8.468 179.585 6.932ZM180.665 19.028C180.665 17.42 180.113 16.076 179.009 14.996C177.857 13.916 176.381 13.376 174.581 13.376H167.525V22.772C167.525 23.708 167.873 24.308 168.569 24.572C168.929 24.692 169.445 24.752 170.117 24.752H174.365C176.189 24.752 177.677 24.284 178.829 23.348C180.053 22.316 180.665 20.876 180.665 19.028ZM210.204 2.144C208.932 2.144 208.068 2.3 207.612 2.612C207.252 2.876 207.072 3.356 207.072 4.052V18.2C207.072 20.528 206.472 22.436 205.272 23.924C203.736 25.748 201.252 26.66 197.82 26.66C195.252 26.66 193.164 25.916 191.556 24.428C189.852 22.796 189 20.6 189 17.84V4.088C189 3.368 188.784 2.876 188.352 2.612C187.896 2.3 186.996 2.144 185.652 2.144V0.955998H194.652V2.144C193.284 2.144 192.372 2.3 191.916 2.612C191.556 2.876 191.376 3.368 191.376 4.088V18.056C191.376 20.312 192.036 22.064 193.356 23.312C194.652 24.536 196.428 25.148 198.684 25.148C200.388 25.148 201.816 24.68 202.968 23.744C204.696 22.448 205.56 20.564 205.56 18.092V4.052C205.56 3.38 205.356 2.9 204.948 2.612C204.492 2.3 203.628 2.144 202.356 2.144V0.955998H210.204V2.144ZM221.649 26.048H213.153V24.896C214.329 24.896 215.145 24.74 215.601 24.428C216.009 24.14 216.213 23.66 216.213 22.988V4.232C216.213 3.464 216.009 2.912 215.601 2.576C215.121 2.24 214.305 2.072 213.153 2.072V0.955998H221.649V2.072C221.217 2.072 220.833 2.108 220.497 2.18C220.185 2.228 219.909 2.288 219.669 2.36C219.213 2.528 218.913 2.768 218.769 3.08C218.625 3.368 218.553 3.752 218.553 4.232V22.988C218.553 23.708 218.733 24.188 219.093 24.428C219.573 24.74 220.425 24.896 221.649 24.896V26.048ZM245.199 19.82L242.715 26.084H225.039V24.896C226.263 24.896 227.151 24.716 227.703 24.356C228.111 24.068 228.315 23.564 228.315 22.844V4.16C228.315 3.368 228.123 2.828 227.739 2.54C227.283 2.228 226.383 2.072 225.039 2.072V0.919999H234.147V2.072C232.563 2.072 231.579 2.228 231.195 2.54C230.811 2.852 230.619 3.392 230.619 4.16V22.88C230.619 23.6 230.775 24.104 231.087 24.392C231.447 24.68 232.047 24.824 232.887 24.824H236.883C238.515 24.824 239.883 24.38 240.987 23.492C242.139 22.676 243.243 21.296 244.299 19.352L245.199 19.82ZM269.364 13.484C269.364 17.372 268.284 20.468 266.124 22.772C263.964 24.956 261.12 26.048 257.592 26.048H247.584V24.86C248.76 24.86 249.588 24.68 250.068 24.32C250.476 23.96 250.68 23.396 250.68 22.628V4.232C250.68 3.512 250.464 2.984 250.032 2.648C249.552 2.312 248.736 2.144 247.584 2.144V0.955998H257.592C261.288 0.955998 264.168 2.06 266.232 4.268C268.32 6.5 269.364 9.572 269.364 13.484ZM266.844 13.484C266.844 9.98 266.004 7.208 264.324 5.168C262.692 3.296 260.544 2.324 257.88 2.252C257.784 2.228 257.688 2.216 257.592 2.216C257.496 2.216 257.388 2.216 257.268 2.216H256.008C255.912 2.216 255.816 2.216 255.72 2.216C255.624 2.216 255.528 2.228 255.432 2.252C254.496 2.252 253.848 2.408 253.488 2.72C253.152 3.008 252.984 3.392 252.984 3.872V22.592C252.984 23.312 253.152 23.876 253.488 24.284C253.584 24.38 253.692 24.452 253.812 24.5C253.956 24.524 254.112 24.56 254.28 24.608C254.448 24.656 254.628 24.692 254.82 24.716C255.012 24.74 255.216 24.764 255.432 24.788H257.268C257.388 24.788 257.496 24.788 257.592 24.788C257.688 24.788 257.784 24.776 257.88 24.752C260.544 24.704 262.68 23.732 264.288 21.836C265.992 19.772 266.844 16.988 266.844 13.484ZM292.651 19.424C292.771 19.496 292.903 19.568 293.047 19.64C293.191 19.712 293.323 19.784 293.443 19.856C293.035 20.936 292.639 21.992 292.255 23.024C291.895 24.032 291.511 25.04 291.103 26.048H272.563V24.896C273.667 24.896 274.471 24.716 274.975 24.356C275.383 23.996 275.587 23.456 275.587 22.736V4.232C275.587 3.968 275.551 3.74 275.479 3.548C275.359 3.236 275.215 2.984 275.047 2.792C274.567 2.36 273.739 2.144 272.563 2.144V0.955998H290.275C290.683 1.988 291.079 3.008 291.463 4.016C291.871 5.024 292.279 6.044 292.687 7.076C292.567 7.148 292.447 7.232 292.327 7.328C292.207 7.4 292.087 7.46 291.967 7.508C291.463 6.5 290.899 5.672 290.275 5.024C289.651 4.376 289.075 3.872 288.547 3.512C287.275 2.648 285.799 2.216 284.119 2.216H280.303C279.535 2.216 278.911 2.384 278.431 2.72C278.071 3.008 277.891 3.512 277.891 4.232V12.332H283.291C284.443 12.332 285.235 12.08 285.667 11.576C286.219 10.952 286.495 9.776 286.495 8.048H287.575V18.02H286.495C286.495 16.172 286.219 14.972 285.667 14.42C285.235 13.916 284.443 13.664 283.291 13.664H277.891V22.772C277.891 23.516 278.071 24.044 278.431 24.356C278.671 24.548 278.947 24.668 279.259 24.716C279.595 24.788 279.967 24.824 280.375 24.824H284.515C286.411 24.824 287.887 24.476 288.943 23.78C289.567 23.372 290.179 22.796 290.779 22.052C291.403 21.308 292.027 20.432 292.651 19.424ZM317.772 26.048H313.092C311.988 24.008 310.884 22.004 309.78 20.036C308.676 18.044 307.572 16.028 306.468 13.988H301.752V22.628C301.752 23.492 301.968 24.08 302.4 24.392C302.952 24.728 303.828 24.896 305.028 24.896V26.048H296.136V24.896C297.456 24.896 298.356 24.728 298.836 24.392C299.268 24.032 299.484 23.456 299.484 22.664V4.232C299.484 3.56 299.256 3.056 298.8 2.72C298.344 2.36 297.456 2.18 296.136 2.18V0.955998H307.224C312.72 0.955998 315.468 3.104 315.468 7.4C315.468 8.936 315.096 10.22 314.352 11.252C313.248 12.716 311.436 13.592 308.916 13.88C309.828 15.488 310.728 17.084 311.616 18.668C312.504 20.252 313.404 21.848 314.316 23.456C314.628 23.984 315.036 24.356 315.54 24.572C316.068 24.788 316.812 24.896 317.772 24.896V26.048ZM313.02 7.328C313.02 5.768 312.504 4.544 311.472 3.656C310.416 2.744 309.012 2.288 307.26 2.288H304.092C303.204 2.288 302.604 2.432 302.292 2.72C301.932 3.056 301.752 3.548 301.752 4.196V12.584H307.692C309.252 12.584 310.524 12.116 311.508 11.18C312.516 10.172 313.02 8.888 313.02 7.328ZM338.529 19.604C338.529 21.812 337.785 23.528 336.297 24.752C334.881 26.024 332.961 26.66 330.537 26.66C329.721 26.66 328.833 26.564 327.873 26.372C326.913 26.18 326.013 25.904 325.173 25.544C324.765 25.664 324.357 25.796 323.949 25.94C323.565 26.084 323.205 26.252 322.869 26.444C322.437 25.292 321.993 24.164 321.537 23.06C321.105 21.956 320.673 20.828 320.241 19.676C320.409 19.58 320.565 19.496 320.709 19.424C320.853 19.328 321.009 19.244 321.177 19.172C322.353 21.068 323.493 22.424 324.597 23.24C324.957 23.528 325.377 23.792 325.857 24.032C326.361 24.272 326.877 24.476 327.405 24.644C327.933 24.836 328.461 24.98 328.989 25.076C329.517 25.172 329.997 25.22 330.429 25.22C331.341 25.22 332.157 25.1 332.877 24.86C333.597 24.62 334.197 24.284 334.677 23.852C335.685 22.916 336.189 21.68 336.189 20.144C336.189 19.568 336.057 19.004 335.793 18.452C335.529 17.876 335.181 17.408 334.749 17.048C333.789 16.28 331.905 15.416 329.097 14.456C326.865 13.664 325.101 12.74 323.805 11.684C322.077 10.364 321.213 8.756 321.213 6.86C321.213 4.916 321.909 3.356 323.301 2.18C324.645 1.004 326.397 0.415999 328.557 0.415999C329.589 0.415999 330.597 0.559999 331.581 0.848C331.845 0.943999 332.097 1.04 332.337 1.136C332.601 1.232 332.841 1.328 333.057 1.424L335.217 0.704C335.649 1.808 336.081 2.9 336.513 3.98C336.945 5.06 337.377 6.152 337.809 7.256C337.545 7.376 337.281 7.508 337.017 7.652C336.009 5.924 334.857 4.556 333.561 3.548C332.001 2.396 330.321 1.82 328.521 1.82C327.897 1.82 327.321 1.916 326.793 2.108C326.265 2.276 325.785 2.504 325.353 2.792C324.753 3.2 324.285 3.716 323.949 4.34C323.613 4.964 323.445 5.696 323.445 6.536C323.445 7.904 324.153 9.044 325.569 9.956C326.289 10.388 326.985 10.76 327.657 11.072C328.329 11.36 329.193 11.672 330.249 12.008C331.713 12.488 332.949 12.98 333.957 13.484C334.965 13.988 335.769 14.48 336.369 14.96C337.809 16.112 338.529 17.66 338.529 19.604Z" fill="#4D4D4D"/>
</svg>
