<svg width="26" height="30" viewBox="0 0 26 30" fill="none" xmlns="http://www.w3.org/2000/svg">
<g filter="url(#filter0_d_6_46)">
<path d="M4.4854 2.18876C4.80964 1.95506 5.24189 1.93688 5.58461 2.14251L20.5846 11.1425C20.8858 11.3232 21.0701 11.6487 21.0701 12C21.0701 12.3513 20.8858 12.6768 20.5846 12.8575L5.58461 21.8575C5.24189 22.0631 4.80964 22.0449 4.4854 21.8112C4.16117 21.5775 4.00722 21.1732 4.09393 20.7831L5.8235 13L11.0701 13C11.6224 13 12.0701 12.5523 12.0701 12C12.0701 11.4477 11.6224 11 11.0701 11L5.8235 11L4.09393 3.21693C4.00722 2.82677 4.16117 2.42246 4.4854 2.18876Z" fill="white"/>
</g>
<defs>
<filter id="filter0_d_6_46" x="-3.42993" y="0" width="32" height="32" filterUnits="userSpaceOnUse" color-interpolation-filters="sRGB">
<feFlood flood-opacity="0" result="BackgroundImageFix"/>
<feColorMatrix in="SourceAlpha" type="matrix" values="0 0 0 0 0 0 0 0 0 0 0 0 0 0 0 0 0 0 127 0" result="hardAlpha"/>
<feOffset dy="4"/>
<feGaussianBlur stdDeviation="2"/>
<feComposite in2="hardAlpha" operator="out"/>
<feColorMatrix type="matrix" values="0 0 0 0 0 0 0 0 0 0 0 0 0 0 0 0 0 0 0.25 0"/>
<feBlend mode="normal" in2="BackgroundImageFix" result="effect1_dropShadow_6_46"/>
<feBlend mode="normal" in="SourceGraphic" in2="effect1_dropShadow_6_46" result="shape"/>
</filter>
</defs>
</svg>
