<svg width="102" height="32" viewBox="0 0 102 32" fill="none" xmlns="http://www.w3.org/2000/svg">
<path opacity="0.5" d="M23.184 28.82C22.608 27.38 22.008 26.168 21.384 25.184C20.784 24.2 20.136 23.336 19.44 22.592C18.744 21.824 17.988 21.116 17.172 20.468C16.38 19.82 15.504 19.1 14.544 18.308V18.344C15.384 19.016 16.212 19.736 17.028 20.504C17.868 21.248 18.648 22.052 19.368 22.916C20.112 23.756 20.772 24.656 21.348 25.616C21.924 26.552 22.38 27.548 22.716 28.604C22.404 28.388 22.092 28.088 21.78 27.704C21.492 27.296 21.204 26.876 20.916 26.444L20.052 25.112C19.764 24.656 19.476 24.272 19.188 23.96L19.548 23.636C18.66 22.844 17.796 22.04 16.956 21.224C16.116 20.384 15.24 19.58 14.328 18.812L14.184 19.1C14.88 19.676 15.552 20.276 16.2 20.9C16.872 21.5 17.52 22.136 18.144 22.808C17.52 22.16 16.86 21.548 16.164 20.972C15.492 20.372 14.808 19.796 14.112 19.244C13.296 20.756 12.48 22.256 11.664 23.744C10.872 25.232 10.08 26.732 9.288 28.244C9.216 28.412 9.12 28.676 9 29.036C8.88 29.42 8.748 29.804 8.604 30.188C8.46 30.572 8.304 30.908 8.136 31.196C7.968 31.508 7.776 31.664 7.56 31.664L7.308 31.556C7.572 30.932 7.8 30.296 7.992 29.648C8.184 29.024 8.424 28.412 8.712 27.812C8.4 28.412 8.124 29.012 7.884 29.612C7.644 30.236 7.38 30.848 7.092 31.448C6.972 31.208 6.792 30.98 6.552 30.764C6.312 30.572 6.048 30.476 5.76 30.476C5.712 30.476 5.544 30.5 5.256 30.548C4.992 30.596 4.824 30.68 4.752 30.8L4.572 30.692C4.788 30.572 4.98 30.344 5.148 30.008C5.34 29.696 5.508 29.372 5.652 29.036C5.796 28.7 5.916 28.4 6.012 28.136C6.108 27.896 6.18 27.764 6.228 27.74C6.228 27.716 6.216 27.692 6.192 27.668C6.144 27.644 6.12 27.608 6.12 27.56V27.524C5.856 28.028 5.58 28.52 5.292 29C5.028 29.456 4.74 29.912 4.428 30.368C4.38 30.128 4.356 29.948 4.356 29.828C4.356 29.444 4.452 29.084 4.644 28.748C4.836 28.412 4.992 28.064 5.112 27.704C5.376 27.296 5.604 26.852 5.796 26.372C6.012 25.892 6.216 25.424 6.408 24.968L6.768 25.184C7.296 23.696 7.98 22.208 8.82 20.72C9.66 19.208 10.404 17.732 11.052 16.292L10.764 16.112C10.116 17.504 9.42 18.968 8.676 20.504C7.932 22.04 7.212 23.492 6.516 24.86C7.188 23.468 7.836 22.076 8.46 20.684C9.084 19.292 9.708 17.888 10.332 16.472C9.708 16.064 9.048 15.644 8.352 15.212C7.68 14.756 7.008 14.3 6.336 13.844C5.688 13.364 5.052 12.872 4.428 12.368C3.828 11.864 3.276 11.324 2.772 10.748C2.364 10.268 1.968 9.8 1.584 9.344C1.2 8.864 0.792 8.408 0.36 7.976C0.528 7.856 0.66 7.712 0.756 7.544C0.852 7.352 1.008 7.244 1.224 7.22C1.44 7.316 1.644 7.448 1.836 7.616C2.028 7.76 2.196 7.916 2.34 8.084L2.556 7.76C2.364 7.496 2.196 7.196 2.052 6.86C1.908 6.524 1.836 6.188 1.836 5.852C1.836 5.66 1.884 5.492 1.98 5.348C2.076 5.18 2.232 5.096 2.448 5.096C2.592 5.096 2.904 5.252 3.384 5.564C3.864 5.876 4.428 6.272 5.076 6.752C5.724 7.232 6.42 7.76 7.164 8.336C7.932 8.912 8.652 9.464 9.324 9.992C10.02 10.52 10.632 11 11.16 11.432C11.712 11.84 12.096 12.116 12.312 12.26C12.816 11.228 13.248 10.412 13.608 9.812C13.992 9.188 14.364 8.636 14.724 8.156C15.084 7.652 15.468 7.148 15.876 6.644C16.284 6.116 16.764 5.432 17.316 4.592C17.436 4.784 17.616 4.916 17.856 4.988C18.096 5.036 18.216 5.18 18.216 5.42C18.216 5.54 18.132 5.732 17.964 5.996C17.82 6.236 17.724 6.392 17.676 6.464L18 6.68C18.264 6.44 18.552 6.212 18.864 5.996C19.2 5.78 19.548 5.672 19.908 5.672C20.34 5.672 20.556 5.888 20.556 6.32C20.556 6.728 20.364 7.316 19.98 8.084C19.596 8.828 19.14 9.632 18.612 10.496C18.108 11.36 17.604 12.2 17.1 13.016C16.62 13.832 16.272 14.504 16.056 15.032C16.392 15.296 16.86 15.716 17.46 16.292C18.084 16.844 18.756 17.492 19.476 18.236C20.196 18.956 20.928 19.724 21.672 20.54C22.416 21.356 23.088 22.16 23.688 22.952C24.288 23.72 24.78 24.44 25.164 25.112C25.548 25.76 25.74 26.276 25.74 26.66C25.74 26.876 25.62 27.008 25.38 27.056C25.044 26.432 24.684 25.832 24.3 25.256C23.94 24.728 23.568 24.212 23.184 23.708C23.544 24.212 23.88 24.728 24.192 25.256C24.528 25.832 24.852 26.432 25.164 27.056L24.588 27.38L25.056 28.136C25.056 28.4 25.02 28.664 24.948 28.928C24.876 29.168 24.672 29.288 24.336 29.288C24.12 29.288 23.916 29.24 23.724 29.144C23.556 29.048 23.376 28.94 23.184 28.82ZM17.1 16.796C17.748 17.468 18.396 18.128 19.044 18.776C19.692 19.424 20.328 20.096 20.952 20.792C20.424 19.904 19.812 19.184 19.116 18.632C18.444 18.056 17.772 17.444 17.1 16.796ZM9.684 26.012C9.828 25.748 9.996 25.424 10.188 25.04C10.428 24.584 10.668 24.128 10.908 23.672C11.148 23.192 11.376 22.748 11.592 22.34C11.76 22.004 11.904 21.74 12.024 21.548C11.136 23.012 10.356 24.5 9.684 26.012ZM10.44 18.596C10.104 19.148 9.792 19.712 9.504 20.288C9.24 20.864 8.976 21.452 8.712 22.052L10.44 18.596ZM9.936 15.716L9.828 15.932L10.404 16.328L10.512 16.04L9.936 15.716ZM9.648 26.084V26.12V26.084ZM43.0779 17.3C42.1419 16.964 41.1699 16.748 40.1619 16.652C39.2019 16.532 38.2179 16.424 37.2099 16.328C38.1219 16.472 39.0579 16.604 40.0179 16.724C41.0259 16.844 41.9739 17.108 42.8619 17.516C42.7659 17.612 42.6699 17.696 42.5739 17.768C42.4779 17.84 42.3819 17.876 42.2859 17.876C41.9499 17.876 41.6259 17.84 41.3139 17.768C41.0019 17.672 40.6659 17.624 40.3059 17.624V17.192C40.1859 17.216 40.0179 17.228 39.8019 17.228C39.2019 17.228 38.6139 17.144 38.0379 16.976C37.4619 16.808 36.8739 16.724 36.2739 16.724C35.9619 16.724 35.6619 16.76 35.3739 16.832V16.976C36.1419 17.024 36.9219 17.108 37.7139 17.228C38.5299 17.324 39.3579 17.456 40.1979 17.624C39.4299 17.504 38.6019 17.396 37.7139 17.3C36.8499 17.204 36.0339 17.156 35.2659 17.156C34.9539 17.156 34.6539 17.168 34.3659 17.192C34.1019 17.192 33.8379 17.204 33.5739 17.228C33.5739 17.732 33.5859 18.32 33.6099 18.992C33.6339 19.664 33.6819 20.324 33.7539 20.972C33.8259 21.596 33.9099 22.148 34.0059 22.628C34.1019 23.108 34.2219 23.42 34.3659 23.564L34.6899 24.212C34.9779 25.1 35.9379 25.544 37.5699 25.544C37.9299 25.544 38.3619 25.496 38.8659 25.4C39.3699 25.304 39.8739 25.196 40.3779 25.076C40.9059 24.932 41.3979 24.812 41.8539 24.716C42.3339 24.62 42.7419 24.572 43.0779 24.572C43.4139 24.572 43.6059 24.62 43.6539 24.716C43.7019 24.812 43.7259 24.944 43.7259 25.112C42.7179 25.232 41.7459 25.412 40.8099 25.652C39.9939 25.868 39.2019 26.036 38.4339 26.156C39.2019 26.036 39.9819 25.892 40.7739 25.724C41.7099 25.508 42.6579 25.34 43.6179 25.22C43.5699 25.364 43.5459 25.46 43.5459 25.508C43.5459 25.652 43.6059 25.772 43.7259 25.868L44.2299 25.796C44.3739 25.772 44.5179 25.76 44.6619 25.76C44.8059 25.736 44.9379 25.7 45.0579 25.652C45.4899 25.772 45.7899 25.904 45.9579 26.048C46.1499 26.192 46.2459 26.348 46.2459 26.516C46.2459 26.828 46.0899 27.044 45.7779 27.164C45.4899 27.284 45.2139 27.476 44.9499 27.74H44.8059C44.1099 27.74 43.4379 27.8 42.7899 27.92C42.1419 28.016 41.4939 28.124 40.8459 28.244C40.2219 28.364 39.5739 28.484 38.9019 28.604C38.2539 28.7 37.5819 28.748 36.8859 28.748H36.3819H36.1659C36.6219 28.796 37.1139 28.82 37.6419 28.82C38.3139 28.82 38.9379 28.784 39.5139 28.712C40.1139 28.64 40.6899 28.556 41.2419 28.46C41.7939 28.364 42.3219 28.28 42.8259 28.208C43.3539 28.136 43.8819 28.1 44.4099 28.1C44.0259 28.292 43.5579 28.484 43.0059 28.676C42.4539 28.844 41.8419 28.988 41.1699 29.108C40.4979 29.252 39.8019 29.36 39.0819 29.432C38.3619 29.528 37.6539 29.576 36.9579 29.576C36.4779 29.576 36.0099 29.552 35.5539 29.504C35.0979 29.456 34.6059 29.3 34.0779 29.036L34.0419 28.64C33.7059 28.52 33.3459 28.304 32.9619 27.992C32.6019 27.656 32.2659 27.308 31.9539 26.948C31.6419 26.588 31.3779 26.252 31.1619 25.94C30.9459 25.628 30.8379 25.424 30.8379 25.328L30.7299 25.004C30.5139 24.548 30.3339 24.044 30.1899 23.492C30.0699 22.94 29.9739 22.388 29.9019 21.836C29.8299 21.26 29.7699 20.696 29.7219 20.144C29.6739 19.592 29.6379 19.076 29.6139 18.596C29.5659 17.804 29.5299 17.012 29.5059 16.22C29.4819 15.404 29.4699 14.588 29.4699 13.772C29.4699 12.956 29.4699 12.14 29.4699 11.324C29.4939 10.484 29.5059 9.644 29.5059 8.804H29.3979C29.2779 9.716 29.2059 10.592 29.1819 11.432C29.1819 12.272 29.1819 13.112 29.1819 13.952V15.356C29.1819 17.036 29.2659 18.788 29.4339 20.612C29.6259 22.436 30.0939 24.212 30.8379 25.94C30.2859 25.004 29.9379 24.08 29.7939 23.168C29.6499 22.232 29.5179 21.368 29.3979 20.576C29.2539 19.544 29.1459 18.548 29.0739 17.588C29.0259 16.628 29.0019 15.644 29.0019 14.636V13.88C29.0019 12.488 29.0379 11.072 29.1099 9.632C29.1819 8.192 29.3979 6.668 29.7579 5.06C29.6139 5.06 29.5419 4.988 29.5419 4.844C29.5419 4.7 29.6139 4.496 29.7579 4.232C29.9259 3.968 30.1299 3.716 30.3699 3.476C30.6099 3.212 30.8739 2.996 31.1619 2.828C31.4739 2.636 31.7739 2.54 32.0619 2.54H40.6299C41.5179 2.708 42.3819 2.852 43.2219 2.972C44.0859 3.068 44.9859 3.14 45.9219 3.188L45.8859 4.016C45.8859 4.16 45.8139 4.28 45.6699 4.376C45.5499 4.448 45.2619 4.484 44.8059 4.484C44.6619 4.484 44.4819 4.484 44.2659 4.484C44.0739 4.46 43.8579 4.436 43.6179 4.412V4.736C44.6019 4.952 45.3699 5.216 45.9219 5.528C46.4979 5.84 46.7859 6.14 46.7859 6.428C46.7859 6.764 46.4619 6.968 45.8139 7.04C45.1899 7.112 44.3499 7.148 43.2939 7.148C41.9499 7.148 40.5099 7.148 38.9739 7.148C37.4619 7.124 35.9979 7.052 34.5819 6.932H33.9699C33.8499 7.844 33.7659 8.78 33.7179 9.74C33.6699 10.7 33.6339 11.684 33.6099 12.692C33.9939 12.692 34.3659 12.68 34.7259 12.656C35.1099 12.608 35.5059 12.584 35.9139 12.584C36.2499 12.584 36.6339 12.62 37.0659 12.692C37.5219 12.74 37.9899 12.812 38.4699 12.908C38.9739 13.004 39.4659 13.124 39.9459 13.268C40.4499 13.388 40.9059 13.52 41.3139 13.664C41.3859 13.688 41.4699 13.7 41.5659 13.7H42.1779C42.4899 13.7 42.6939 13.748 42.7899 13.844C42.9099 13.94 42.9699 14.132 42.9699 14.42C42.5619 14.42 42.1779 14.396 41.8179 14.348C41.4579 14.3 41.1099 14.252 40.7739 14.204C41.1099 14.324 41.4579 14.42 41.8179 14.492C42.1779 14.54 42.5619 14.588 42.9699 14.636C42.9219 14.756 42.8859 14.864 42.8619 14.96C42.8619 15.056 42.8619 15.14 42.8619 15.212C43.1019 15.26 43.2579 15.38 43.3299 15.572C43.4259 15.74 43.4739 15.932 43.4739 16.148C43.4739 16.46 43.4019 16.712 43.2579 16.904C43.1379 17.072 43.0779 17.204 43.0779 17.3ZM30.4059 21.368C30.5019 21.944 30.6099 22.568 30.7299 23.24C30.8739 23.888 31.0779 24.536 31.3419 25.184C31.6299 25.808 32.0139 26.396 32.4939 26.948C32.8779 27.404 33.3819 27.788 34.0059 28.1C33.2859 27.716 32.6979 27.188 32.2419 26.516C31.7139 25.7 31.2939 24.788 30.9819 23.78C30.6939 22.772 30.4779 21.704 30.3339 20.576C30.2139 19.448 30.1179 18.368 30.0459 17.336C30.0699 17.984 30.1059 18.644 30.1539 19.316C30.2019 19.988 30.2859 20.672 30.4059 21.368ZM39.2259 14.024C39.6339 14.096 40.0659 14.156 40.5219 14.204C40.0899 14.084 39.6819 14 39.2979 13.952C38.9139 13.88 38.5299 13.796 38.1459 13.7C38.4579 13.844 38.8179 13.952 39.2259 14.024ZM33.3219 28.784C33.0099 28.64 32.7339 28.472 32.4939 28.28C32.3259 28.136 32.1699 27.992 32.0259 27.848C32.1699 27.992 32.3379 28.124 32.5299 28.244C32.7939 28.436 33.0579 28.616 33.3219 28.784ZM34.4019 28.28L34.0779 28.136L34.4019 28.28ZM71.525 27.884C71.333 27.524 70.997 27.164 70.517 26.804C70.037 26.42 69.461 26.048 68.789 25.688C68.117 25.328 67.397 24.98 66.629 24.644C65.861 24.308 65.105 23.984 64.361 23.672C63.617 23.336 62.921 23.024 62.273 22.736C61.817 22.544 61.421 22.352 61.085 22.16C61.781 22.568 62.513 22.94 63.281 23.276C64.169 23.684 65.057 24.104 65.945 24.536C66.857 24.968 67.733 25.424 68.573 25.904C69.413 26.384 70.181 26.936 70.877 27.56C70.181 27.368 69.305 27.056 68.249 26.624C67.193 26.168 66.113 25.676 65.009 25.148C63.929 24.596 62.873 24.044 61.841 23.492C60.833 22.94 60.017 22.46 59.393 22.052L59.645 21.728C58.973 21.272 58.289 20.744 57.593 20.144C56.897 19.544 56.357 18.884 55.973 18.164C55.709 19.292 55.553 20.372 55.505 21.404C55.457 22.436 55.433 23.42 55.433 24.356C55.433 24.692 55.517 25.016 55.685 25.328C55.853 25.616 55.937 25.892 55.937 26.156C55.937 26.516 55.769 26.732 55.433 26.804C55.241 26.348 55.097 25.892 55.001 25.436C54.905 24.98 54.833 24.524 54.785 24.068C54.785 24.548 54.809 25.016 54.857 25.472C54.929 25.952 55.049 26.432 55.217 26.912L54.677 27.128L55.001 27.56C54.953 27.824 54.845 28.076 54.677 28.316C54.533 28.532 54.305 28.64 53.993 28.64C53.609 28.64 53.297 28.436 53.057 28.028C52.841 27.596 52.661 27.092 52.517 26.516C52.397 25.916 52.313 25.316 52.265 24.716C52.241 24.092 52.229 23.576 52.229 23.168C52.229 22.352 52.229 21.548 52.229 20.756C52.253 19.964 52.289 19.16 52.337 18.344C52.217 19.112 52.145 19.892 52.121 20.684C52.121 21.476 52.121 22.268 52.121 23.06C52.121 23.9 52.169 24.764 52.265 25.652C52.361 26.54 52.505 27.392 52.697 28.208C52.385 27.92 52.145 27.596 51.977 27.236C51.833 26.876 51.713 26.504 51.617 26.12C51.545 25.712 51.485 25.304 51.437 24.896C51.413 24.488 51.389 24.092 51.365 23.708L51.797 23.6C51.701 23.24 51.641 22.88 51.617 22.52C51.593 22.136 51.581 21.752 51.581 21.368C51.581 20.528 51.641 19.712 51.761 18.92C51.881 18.104 51.941 17.276 51.941 16.436V16.004L51.905 15.104H51.689C51.641 16.256 51.569 17.408 51.473 18.56C51.401 19.712 51.353 20.876 51.329 22.052C51.305 21.812 51.293 21.584 51.293 21.368V20.684C51.293 18.932 51.377 17.216 51.545 15.536C51.737 13.832 51.929 12.116 52.121 10.388C52.169 9.836 52.313 9.332 52.553 8.876C52.793 8.396 52.985 7.904 53.129 7.4C53.225 7.472 53.345 7.52 53.489 7.544C53.633 7.544 53.765 7.556 53.885 7.58C54.005 7.58 54.113 7.616 54.209 7.688C54.305 7.76 54.353 7.88 54.353 8.048C54.353 8.144 54.341 8.24 54.317 8.336L54.245 8.624L54.569 8.732C54.737 8.468 54.953 8.216 55.217 7.976C55.481 7.736 55.781 7.616 56.117 7.616C56.381 7.616 56.573 7.724 56.693 7.94C56.813 8.156 56.873 8.384 56.873 8.624C56.873 8.768 56.849 9.068 56.801 9.524C56.777 9.98 56.729 10.508 56.657 11.108C56.609 11.708 56.549 12.356 56.477 13.052C56.405 13.724 56.333 14.36 56.261 14.96C56.213 15.56 56.165 16.076 56.117 16.508C56.069 16.916 56.045 17.168 56.045 17.264L56.909 15.32C56.837 15.536 56.765 15.716 56.693 15.86C56.645 16.004 56.597 16.148 56.549 16.292C56.501 16.436 56.429 16.592 56.333 16.76C56.261 16.928 56.153 17.144 56.009 17.408V17.912L57.197 15.212C57.581 15.212 57.953 15.212 58.313 15.212C58.697 15.188 59.081 15.14 59.465 15.068L59.825 14.996C59.297 14.996 58.877 14.996 58.565 14.996C58.277 14.972 58.001 14.936 57.737 14.888C58.697 14.888 59.645 14.876 60.581 14.852C61.541 14.804 62.513 14.78 63.497 14.78C64.361 14.78 65.213 14.756 66.053 14.708C66.917 14.66 67.685 14.492 68.357 14.204C69.053 13.916 69.617 13.472 70.049 12.872C70.481 12.272 70.697 11.42 70.697 10.316C70.697 9.188 70.553 8.276 70.265 7.58C69.977 6.884 69.557 6.344 69.005 5.96C68.477 5.552 67.805 5.288 66.989 5.168C66.173 5.024 65.249 4.952 64.217 4.952C62.105 4.952 59.981 5.048 57.845 5.24C55.709 5.432 53.621 5.792 51.581 6.32C51.533 6.128 51.497 5.96 51.473 5.816C51.449 5.648 51.389 5.504 51.293 5.384C51.293 5.24 51.425 5.108 51.689 4.988C51.953 4.868 52.253 4.772 52.589 4.7C52.925 4.628 53.237 4.568 53.525 4.52C53.837 4.472 54.041 4.436 54.137 4.412V3.98C53.969 4.004 53.681 4.028 53.273 4.052C52.865 4.076 52.421 4.088 51.941 4.088C51.293 4.088 50.693 4.052 50.141 3.98C49.589 3.884 49.313 3.704 49.313 3.44C49.313 3.152 49.625 2.876 50.249 2.612C50.897 2.348 51.713 2.108 52.697 1.892C53.681 1.652 54.761 1.448 55.937 1.28C57.113 1.112 58.241 0.967999 59.321 0.847998C60.425 0.703998 61.397 0.607999 62.237 0.559999C63.101 0.487999 63.701 0.451998 64.037 0.451998C65.765 0.451998 67.325 0.631998 68.717 0.991998C70.109 1.328 71.285 1.892 72.245 2.684C73.229 3.476 73.973 4.52 74.477 5.816C75.005 7.088 75.269 8.66 75.269 10.532C75.269 12.092 74.969 13.424 74.369 14.528C73.793 15.608 73.013 16.496 72.029 17.192C71.045 17.864 69.917 18.368 68.645 18.704C67.373 19.016 66.053 19.172 64.685 19.172C64.301 19.172 63.917 19.16 63.533 19.136C63.173 19.112 62.801 19.088 62.417 19.064C62.681 19.232 63.113 19.46 63.713 19.748C64.337 20.036 65.021 20.36 65.765 20.72C66.533 21.08 67.325 21.464 68.141 21.872C68.981 22.256 69.737 22.64 70.409 23.024C71.081 23.384 71.633 23.732 72.065 24.068C72.497 24.38 72.713 24.632 72.713 24.824L72.533 25.04C71.741 24.464 70.925 23.96 70.085 23.528C69.245 23.096 68.381 22.688 67.493 22.304C66.629 21.92 65.753 21.548 64.865 21.188C64.025 20.828 63.185 20.408 62.345 19.928C63.161 20.408 63.977 20.828 64.793 21.188L67.349 22.34C68.213 22.724 69.053 23.132 69.869 23.564C70.709 23.972 71.513 24.464 72.281 25.04L71.813 25.472C71.981 25.592 72.173 25.76 72.389 25.976C72.629 26.168 72.845 26.384 73.037 26.624C73.253 26.864 73.433 27.116 73.577 27.38C73.721 27.62 73.793 27.848 73.793 28.064C73.793 28.376 73.649 28.532 73.361 28.532C73.073 28.532 72.761 28.448 72.425 28.28C72.089 28.112 71.789 27.98 71.525 27.884ZM63.677 14.996C63.197 14.996 62.693 15.008 62.165 15.032C61.661 15.032 61.145 15.032 60.617 15.032C61.217 15.056 61.841 15.092 62.489 15.14C63.137 15.164 63.797 15.176 64.469 15.176C65.309 15.176 66.125 15.128 66.917 15.032C67.733 14.912 68.453 14.684 69.077 14.348C69.701 13.988 70.193 13.508 70.553 12.908C70.937 12.284 71.129 11.468 71.129 10.46C71.129 10.124 71.105 9.8 71.057 9.488C71.009 9.176 70.949 8.852 70.877 8.516H70.661C70.805 9.092 70.877 9.68 70.877 10.28C70.877 11.36 70.685 12.212 70.301 12.836C69.917 13.46 69.401 13.94 68.753 14.276C68.105 14.588 67.337 14.792 66.449 14.888C65.585 14.96 64.661 14.996 63.677 14.996ZM57.305 15.788C58.265 15.836 59.237 15.872 60.221 15.896C61.229 15.896 62.261 15.896 63.317 15.896C63.941 15.896 64.565 15.884 65.189 15.86C65.813 15.812 66.413 15.728 66.989 15.608C66.725 15.656 66.461 15.68 66.197 15.68H65.441C65.153 15.68 64.805 15.68 64.397 15.68C63.989 15.656 63.545 15.632 63.065 15.608C62.585 15.584 62.081 15.572 61.553 15.572C61.025 15.548 60.509 15.536 60.005 15.536C59.453 15.536 58.949 15.548 58.493 15.572C58.037 15.596 57.641 15.668 57.305 15.788ZM55.937 18.56C56.417 19.184 56.897 19.772 57.377 20.324C57.881 20.852 58.445 21.356 59.069 21.836C58.493 21.428 57.905 20.936 57.305 20.36C56.729 19.784 56.273 19.184 55.937 18.56ZM61.265 18.272C61.745 18.32 62.225 18.356 62.705 18.38C63.161 18.404 63.593 18.428 64.001 18.452C63.665 18.428 63.329 18.392 62.993 18.344C62.609 18.272 62.225 18.236 61.841 18.236H61.553C61.457 18.236 61.361 18.248 61.265 18.272ZM57.197 15.788C57.173 15.86 57.101 16.004 56.981 16.22C56.885 16.436 56.777 16.676 56.657 16.94C56.561 17.18 56.465 17.408 56.369 17.624C56.273 17.84 56.225 17.984 56.225 18.056L56.297 17.984L57.197 15.896V15.788ZM60.941 18.956H60.833C61.169 19.22 61.553 19.472 61.985 19.712L60.941 18.956ZM56.513 18.344C56.561 18.464 56.633 18.608 56.729 18.776C56.849 18.92 56.993 19.076 57.161 19.244C57.017 19.076 56.897 18.908 56.801 18.74C56.705 18.548 56.633 18.368 56.585 18.2L56.513 18.344ZM60.761 21.98C60.833 22.028 60.893 22.064 60.941 22.088L60.761 21.98ZM86.9144 31.232C87.9704 31.568 89.0504 31.736 90.1544 31.736C91.4024 31.736 92.5664 31.544 93.6464 31.16C94.7264 30.776 95.7104 30.248 96.5984 29.576C97.4864 28.904 98.2664 28.124 98.9384 27.236C99.4184 26.612 99.8384 25.94 100.198 25.22C99.8864 25.892 99.5264 26.552 99.1184 27.2C98.5424 28.112 97.8224 28.916 96.9584 29.612C96.1184 30.308 95.1464 30.86 94.0424 31.268C92.9384 31.7 91.6904 31.916 90.2984 31.916H89.8304C87.8384 31.916 86.1104 31.472 84.6464 30.584C83.1824 29.696 81.9704 28.568 81.0104 27.2C80.0504 25.808 79.3304 24.26 78.8504 22.556C78.3944 20.852 78.1664 19.172 78.1664 17.516C78.1664 16.82 78.2024 16.088 78.2744 15.32C78.3464 14.528 78.5024 13.736 78.7424 12.944C78.9824 12.152 79.3184 11.384 79.7504 10.64C80.2064 9.872 80.8184 9.176 81.5864 8.552C82.2104 8.048 82.8824 7.628 83.6024 7.292C84.3464 6.932 85.0784 6.728 85.7984 6.68C85.7264 6.728 85.6904 6.776 85.6904 6.824C85.6904 6.92 85.7384 7.028 85.8344 7.148C85.9544 7.244 86.0144 7.352 86.0144 7.472V7.544C86.0144 7.64 85.9544 7.712 85.8344 7.76C85.7384 7.808 85.5704 7.88 85.3304 7.976C85.0904 8.048 84.7784 8.168 84.3944 8.336C84.0104 8.504 83.5544 8.756 83.0264 9.092C83.1704 9.236 83.2424 9.344 83.2424 9.416C83.6984 9.176 84.1184 9.008 84.5024 8.912C84.8864 8.816 85.2464 8.768 85.5824 8.768C86.2784 8.768 86.7824 8.888 87.0944 9.128C87.4064 9.368 87.5624 9.548 87.5624 9.668C87.5624 9.86 87.4064 10.016 87.0944 10.136C86.8064 10.256 86.4584 10.412 86.0504 10.604C85.6664 10.772 85.2584 11.012 84.8264 11.324C84.3944 11.612 84.0584 12.044 83.8184 12.62C83.4344 13.196 83.1344 13.916 82.9184 14.78C82.7264 15.644 82.6304 16.52 82.6304 17.408C82.6304 18.92 82.8104 20.3 83.1704 21.548C83.5304 22.796 84.0344 23.876 84.6824 24.788C85.3544 25.7 86.1584 26.408 87.0944 26.912C88.0544 27.416 89.1344 27.668 90.3344 27.668C91.4864 27.668 92.5184 27.38 93.4304 26.804C94.3664 26.228 95.1584 25.448 95.8064 24.464C96.4544 23.456 96.9464 22.304 97.2824 21.008C97.6184 19.688 97.7864 18.284 97.7864 16.796C97.7864 16.076 97.7384 15.368 97.6424 14.672C97.5704 13.952 97.4024 13.268 97.1384 12.62C96.8984 11.972 96.5504 11.36 96.0944 10.784C95.6624 10.208 95.0864 9.68 94.3664 9.2C93.4544 8.72 92.7104 8.384 92.1344 8.192C91.5584 7.976 91.2704 7.772 91.2704 7.58C91.2704 7.508 91.3184 7.424 91.4144 7.328C92.6144 7.592 93.6944 8.024 94.6544 8.624C95.5424 9.176 96.2864 9.896 96.8864 10.784C96.2384 9.8 95.5064 9.044 94.6904 8.516C93.8024 7.916 92.7464 7.448 91.5224 7.112C91.6424 6.992 91.7024 6.884 91.7024 6.788C91.7024 6.692 91.5224 6.608 91.1624 6.536C90.8264 6.464 90.4544 6.38 90.0464 6.284C89.6384 6.188 89.2544 6.068 88.8944 5.924C88.5584 5.78 88.3904 5.6 88.3904 5.384C88.3904 5.12 88.6064 4.928 89.0384 4.808C89.4704 4.688 89.9984 4.544 90.6224 4.376C90.7904 4.376 90.9464 4.4 91.0904 4.448C91.2584 4.496 91.4024 4.544 91.5224 4.592C92.6984 4.808 93.8144 5.192 94.8704 5.744C95.9504 6.296 96.9104 7.004 97.7504 7.868C98.6144 8.732 99.3344 9.764 99.9104 10.964C100.486 12.14 100.858 13.472 101.026 14.96C100.906 13.544 100.582 12.26 100.054 11.108C99.5504 9.932 98.8784 8.888 98.0384 7.976C97.2224 7.064 96.2624 6.296 95.1584 5.672C94.0544 5.048 92.8784 4.568 91.6304 4.232C92.7344 4.232 93.8264 4.46 94.9064 4.916C96.0104 5.348 97.0184 5.996 97.9304 6.86C98.8424 7.7 99.6344 8.744 100.306 9.992C100.978 11.24 101.458 12.668 101.746 14.276C101.698 14.276 101.626 14.3 101.53 14.348C101.434 14.372 101.362 14.384 101.314 14.384C101.53 15.608 101.638 16.796 101.638 17.948C101.638 19.628 101.374 21.272 100.846 22.88C100.342 24.488 99.5984 25.928 98.6144 27.2C97.6544 28.448 96.4664 29.456 95.0504 30.224C93.6344 31.016 92.0144 31.412 90.1904 31.412C89.1104 31.412 88.0544 31.256 87.0224 30.944C85.9904 30.632 85.0304 30.212 84.1424 29.684C84.1904 29.732 84.2144 29.78 84.2144 29.828C84.2144 29.876 84.1544 29.9 84.0344 29.9C84.9224 30.476 85.8824 30.92 86.9144 31.232ZM101.098 18.344C100.978 19.28 100.798 20.252 100.558 21.26C100.342 22.244 100.03 23.216 99.6224 24.176C99.2384 25.136 98.7464 26.036 98.1464 26.876C97.5464 27.692 96.8384 28.4 96.0224 29C96.8384 28.424 97.5584 27.74 98.1824 26.948C98.8064 26.132 99.3224 25.244 99.7304 24.284C100.162 23.324 100.486 22.316 100.702 21.26C100.942 20.18 101.086 19.112 101.134 18.056C101.11 18.128 101.098 18.224 101.098 18.344ZM98.2184 20.432C98.0264 21.344 97.7384 22.232 97.3544 23.096C96.9704 23.936 96.4784 24.692 95.8784 25.364C96.5024 24.716 97.0064 23.972 97.3904 23.132C97.7744 22.292 98.0504 21.392 98.2184 20.432ZM101.926 17.264C101.926 17.672 101.902 18.092 101.854 18.524C101.83 18.932 101.794 19.352 101.746 19.784C101.746 19.376 101.77 18.92 101.818 18.416C101.866 17.888 101.89 17.312 101.89 16.688V16.04C101.914 16.232 101.926 16.436 101.926 16.652V17.264ZM98.2184 20.432C98.3384 19.904 98.4224 19.376 98.4704 18.848C98.5424 18.296 98.5784 17.744 98.5784 17.192C98.5784 16.592 98.5424 15.98 98.4704 15.356C98.4944 15.62 98.5064 15.872 98.5064 16.112C98.5304 16.352 98.5424 16.604 98.5424 16.868C98.5424 18.092 98.4344 19.28 98.2184 20.432ZM101.746 20L101.422 21.764C101.302 22.196 101.182 22.628 101.062 23.06C100.942 23.468 100.798 23.876 100.63 24.284C100.894 23.54 101.11 22.796 101.278 22.052C101.47 21.308 101.626 20.576 101.746 19.856V20ZM84.0704 29.972C84.0704 29.948 84.0584 29.924 84.0344 29.9C84.0344 29.924 84.0464 29.948 84.0704 29.972ZM100.63 24.284C100.582 24.38 100.546 24.464 100.522 24.536C100.546 24.464 100.582 24.38 100.63 24.284ZM100.234 25.148C100.282 25.076 100.318 25.004 100.342 24.932C100.318 25.004 100.282 25.076 100.234 25.148ZM97.1024 11.072C97.0784 11.024 97.0424 10.976 96.9944 10.928C97.0184 10.976 97.0544 11.024 97.1024 11.072ZM100.522 24.536C100.474 24.656 100.426 24.776 100.378 24.896C100.426 24.776 100.474 24.656 100.522 24.536Z" fill="#4D4D4D"/>
</svg>
